<svg width="20" height="20" viewBox="0 0 20 20" fill="none" xmlns="http://www.w3.org/2000/svg">
    <path d="M18.0001 0.00012207H2.00006C0.900061 0.00012207 0.010061 0.900122 0.010061 2.00012L6.10352e-05 20.0001L4.00006 16.0001H18.0001C19.1001 16.0001 20.0001 15.1001 20.0001 14.0001V2.00012C20.0001 0.900122 19.1001 0.00012207 18.0001 0.00012207ZM5.00006 7.00012H15.0001C15.5501 7.00012 16.0001 7.45012 16.0001 8.00012C16.0001 8.55012 15.5501 9.00012 15.0001 9.00012H5.00006C4.45006 9.00012 4.00006 8.55012 4.00006 8.00012C4.00006 7.45012 4.45006 7.00012 5.00006 7.00012ZM11.0001 12.0001H5.00006C4.45006 12.0001 4.00006 11.5501 4.00006 11.0001C4.00006 10.4501 4.45006 10.0001 5.00006 10.0001H11.0001C11.5501 10.0001 12.0001 10.4501 12.0001 11.0001C12.0001 11.5501 11.5501 12.0001 11.0001 12.0001ZM15.0001 6.00012H5.00006C4.45006 6.00012 4.00006 5.55012 4.00006 5.00012C4.00006 4.45012 4.45006 4.00012 5.00006 4.00012H15.0001C15.5501 4.00012 16.0001 4.45012 16.0001 5.00012C16.0001 5.55012 15.5501 6.00012 15.0001 6.00012Z"
          fill="white" fill-opacity="0.9"/>
</svg>
