<svg width="20" height="20" viewBox="0 0 20 20" fill="none" xmlns="http://www.w3.org/2000/svg">
    <path d="M0.416687 2.41667C0.416687 1.225 1.39169 0.25 2.58335 0.25H10.1667C9.48419 1.16 9.08335 2.27583 9.08335 3.5C9.08335 6.49 11.51 8.91667 14.5 8.91667C14.8684 8.91667 15.2367 8.88417 15.5834 8.80833V18.1033C15.5834 18.8833 14.7925 19.4033 14.0775 19.1L8.00002 16.5L1.92252 19.1C1.20752 19.4142 0.416687 18.8833 0.416687 18.1033V2.41667ZM18.9092 0.618333C19.3317 1.04083 19.3317 1.72333 18.9092 2.14583L15.0742 5.98083C14.6517 6.40333 13.9692 6.40333 13.5467 5.98083L12.0192 4.45333C11.5967 4.03083 11.5967 3.34833 12.0192 2.92583C12.4417 2.50333 13.1242 2.50333 13.5467 2.92583L14.3159 3.695L17.3817 0.629167C17.8042 0.195833 18.4867 0.195833 18.9092 0.618333Z"
          fill="white" fill-opacity="0.9"/>
</svg>
