<svg width="20" height="16" viewBox="0 0 20 16" fill="none" xmlns="http://www.w3.org/2000/svg">
    <path d="M1.33333 10.167H3.5C4.09583 10.167 4.58333 9.67949 4.58333 9.08366V6.91699C4.58333 6.32116 4.09583 5.83366 3.5 5.83366H1.33333C0.7375 5.83366 0.25 6.32116 0.25 6.91699V9.08366C0.25 9.67949 0.7375 10.167 1.33333 10.167ZM1.33333 15.5837H3.5C4.09583 15.5837 4.58333 15.0962 4.58333 14.5003V12.3337C4.58333 11.7378 4.09583 11.2503 3.5 11.2503H1.33333C0.7375 11.2503 0.25 11.7378 0.25 12.3337V14.5003C0.25 15.0962 0.7375 15.5837 1.33333 15.5837ZM1.33333 4.75033H3.5C4.09583 4.75033 4.58333 4.26283 4.58333 3.66699V1.50033C4.58333 0.904492 4.09583 0.416992 3.5 0.416992H1.33333C0.7375 0.416992 0.25 0.904492 0.25 1.50033V3.66699C0.25 4.26283 0.7375 4.75033 1.33333 4.75033ZM6.75 10.167H18.6667C19.2625 10.167 19.75 9.67949 19.75 9.08366V6.91699C19.75 6.32116 19.2625 5.83366 18.6667 5.83366H6.75C6.15417 5.83366 5.66667 6.32116 5.66667 6.91699V9.08366C5.66667 9.67949 6.15417 10.167 6.75 10.167ZM6.75 15.5837H18.6667C19.2625 15.5837 19.75 15.0962 19.75 14.5003V12.3337C19.75 11.7378 19.2625 11.2503 18.6667 11.2503H6.75C6.15417 11.2503 5.66667 11.7378 5.66667 12.3337V14.5003C5.66667 15.0962 6.15417 15.5837 6.75 15.5837ZM5.66667 1.50033V3.66699C5.66667 4.26283 6.15417 4.75033 6.75 4.75033H18.6667C19.2625 4.75033 19.75 4.26283 19.75 3.66699V1.50033C19.75 0.904492 19.2625 0.416992 18.6667 0.416992H6.75C6.15417 0.416992 5.66667 0.904492 5.66667 1.50033Z"
          fill="white" fill-opacity="0.9"/>
</svg>
