<svg width="24" height="24" viewBox="0 0 24 24" fill="none" xmlns="http://www.w3.org/2000/svg">
    <g clip-path="url(#clip0_1_825)">
        <path d="M20.0001 2.00012H4.00006C2.90006 2.00012 2.01006 2.90012 2.01006 4.00012L2.00006 22.0001L6.00006 18.0001H20.0001C21.1001 18.0001 22.0001 17.1001 22.0001 16.0001V4.00012C22.0001 2.90012 21.1001 2.00012 20.0001 2.00012ZM7.00006 9.00012H17.0001C17.5501 9.00012 18.0001 9.45012 18.0001 10.0001C18.0001 10.5501 17.5501 11.0001 17.0001 11.0001H7.00006C6.45006 11.0001 6.00006 10.5501 6.00006 10.0001C6.00006 9.45012 6.45006 9.00012 7.00006 9.00012ZM13.0001 14.0001H7.00006C6.45006 14.0001 6.00006 13.5501 6.00006 13.0001C6.00006 12.4501 6.45006 12.0001 7.00006 12.0001H13.0001C13.5501 12.0001 14.0001 12.4501 14.0001 13.0001C14.0001 13.5501 13.5501 14.0001 13.0001 14.0001ZM17.0001 8.00012H7.00006C6.45006 8.00012 6.00006 7.55012 6.00006 7.00012C6.00006 6.45012 6.45006 6.00012 7.00006 6.00012H17.0001C17.5501 6.00012 18.0001 6.45012 18.0001 7.00012C18.0001 7.55012 17.5501 8.00012 17.0001 8.00012Z"
              fill="white" fill-opacity="0.9"/>
    </g>
    <defs>
        <clipPath id="clip0_1_825">
            <rect width="24" height="24" fill="white"/>
        </clipPath>
    </defs>
</svg>
