<svg width="111" height="24" viewBox="0 0 111 24" fill="none" xmlns="http://www.w3.org/2000/svg">
    <g clip-path="url(#clip0_11_207)">
        <path d="M25.8213 12.0951C25.8213 13.8953 25.1139 15.3471 23.7043 16.4558C22.5956 17.3322 21.3761 17.7704 20.0457 17.7704C18.4671 17.7704 17.0998 17.2002 15.9489 16.0651C14.798 14.9301 14.2225 13.5891 14.2225 12.0423C14.2225 10.4268 14.798 9.05414 15.9489 7.91907C17.0998 6.78401 18.4935 6.21912 20.1249 6.21912C21.6876 6.21912 23.0285 6.79457 24.1477 7.94547C25.2617 9.10165 25.8213 10.4848 25.8213 12.0951ZM22.0149 12.1215C22.0149 10.0361 21.8723 8.60539 21.5873 7.8346C21.2705 6.97935 20.7584 6.54644 20.0562 6.54644C19.4069 6.54644 18.8948 6.99518 18.5252 7.89796C18.1557 8.79545 17.9762 10.0361 17.9762 11.6199C17.9762 13.8214 18.1926 15.3841 18.6255 16.3133C18.974 17.0524 19.4702 17.4219 20.1038 17.4219C20.8904 17.4219 21.4078 16.9521 21.6559 16.0123C21.8987 15.1149 22.0149 13.8214 22.0149 12.1215Z"
              fill="white" fill-opacity="0.2"/>
        <path d="M39.4421 11.784C39.4421 13.4945 38.9564 14.92 37.985 16.0603C37.0136 17.2007 35.7994 17.7708 34.3423 17.7708C33.2336 17.7708 32.3467 17.3326 31.6762 16.4563V22.1105C31.6762 22.5803 31.7026 22.876 31.7501 23.0027C31.7976 23.1294 31.9138 23.2086 32.088 23.2403C32.2622 23.2719 32.7057 23.2983 33.4184 23.3142C33.6032 23.3142 33.6929 23.3934 33.6929 23.557C33.6929 23.6837 33.5821 23.7471 33.3656 23.7471C33.3498 23.7471 33.2653 23.7471 33.1122 23.7471C32.9591 23.7471 32.8165 23.7471 32.6846 23.7471H30.1399C29.9551 23.7471 29.7017 23.7471 29.385 23.7471C29.0629 23.7471 28.6934 23.7471 28.2763 23.7471H27.0145C26.645 23.7471 26.4602 23.6784 26.4602 23.5465C26.4602 23.4303 26.7611 23.3722 27.3683 23.3722C27.8698 23.3722 28.1549 23.3194 28.2129 23.2191C28.271 23.1188 28.3027 22.7968 28.3027 22.2583V9.55086C28.3027 9.43471 28.3027 9.31856 28.3027 9.19714C28.3027 9.09683 28.3027 9.0282 28.3027 8.99652V8.28909C28.3185 7.93537 28.1866 7.71892 27.9015 7.63445C27.7642 7.58165 27.4791 7.56053 27.0462 7.56053H26.5552C26.418 7.56053 26.3546 7.50774 26.3546 7.40743C26.3546 7.27017 26.4549 7.22265 26.6555 7.25433C28.44 7.20154 30.0027 6.86894 31.3489 6.24597C31.4175 6.34628 31.4598 6.48354 31.4756 6.65248L31.5284 7.28073L31.5548 7.70836C32.0088 7.14874 32.4523 6.76335 32.8905 6.55745C33.3286 6.35156 33.8935 6.24597 34.5799 6.24597C35.9736 6.24597 37.1351 6.76863 38.0589 7.81922C38.9776 8.86982 39.4421 10.1897 39.4421 11.784ZM35.736 11.6837C35.736 8.47914 35.018 6.8795 33.5821 6.8795C32.9485 6.8795 32.41 7.18042 31.9771 7.78755C31.7765 8.07263 31.6762 8.55305 31.6762 9.22353V14.1809C31.6762 15.2526 31.8082 15.9811 32.0774 16.3718C32.4628 16.942 32.9802 17.2271 33.6296 17.2271C35.0339 17.2165 35.736 15.374 35.736 11.6837Z"
              fill="white" fill-opacity="0.2"/>
        <path d="M66.5939 8.10974C66.5939 8.59544 66.4513 8.99667 66.1663 9.30815C65.8812 9.61964 65.5116 9.77274 65.0576 9.77274C64.1495 9.77274 63.6955 9.35039 63.6955 8.51097C63.6955 8.22589 63.8064 7.9408 64.0228 7.65571C64.0756 7.58708 64.0967 7.52901 64.0967 7.4815C64.0967 7.32839 63.9912 7.25448 63.7747 7.25448C63.2098 7.25448 62.7769 7.69795 62.4813 8.59016C62.3176 9.0917 62.2331 10.3271 62.2331 12.2857V14.1229V16.335C62.2331 16.789 62.4601 17.0319 62.9142 17.0635C63.1834 17.0794 63.5002 17.0899 63.875 17.0899C64.0598 17.1058 64.1495 17.1638 64.1495 17.2642C64.1495 17.4014 64.0756 17.4648 63.9225 17.4648H63.4157C63.2626 17.4648 62.534 17.4648 61.2195 17.4648C61.2881 17.4648 60.908 17.4648 60.0844 17.4648H58.8491H57.8882C57.7193 17.4648 57.5239 17.4648 57.3075 17.4648C57.1227 17.4648 57.0277 17.412 57.0277 17.3011C57.0277 17.1902 57.1438 17.1374 57.3814 17.1374C58.073 17.1216 58.4848 17.0477 58.6273 16.921C58.7699 16.7943 58.8438 16.4195 58.8438 15.8018L58.8174 9.00723C58.8174 8.43706 58.7382 8.04111 58.5798 7.82465C58.4214 7.6082 58.0624 7.47094 57.5081 7.42342C57.0699 7.39175 56.8218 7.37063 56.7637 7.35479C56.7056 7.33895 56.674 7.28616 56.674 7.19113C56.674 7.0961 56.7426 7.04859 56.8746 7.04859C57.0277 7.04859 57.1702 7.04859 57.3022 7.04859H57.8037C59.0972 7.04859 60.4962 6.77934 61.9903 6.24084C62.0747 6.57872 62.117 6.96412 62.117 7.4023V8.46346C62.439 7.65044 62.7875 7.07498 63.1623 6.74238C63.5424 6.40978 64.0334 6.24084 64.6405 6.24084C65.2107 6.24084 65.6806 6.41506 66.0395 6.76878C66.4091 7.12778 66.5939 7.57652 66.5939 8.10974Z"
              fill="white" fill-opacity="0.2"/>
        <path d="M77.6119 14.3656C77.6119 14.7352 77.3954 15.2209 76.9572 15.828C76.0175 17.1215 74.7874 17.7708 73.2722 17.7708C71.5723 17.7708 70.1785 17.2323 69.0857 16.1553C67.9929 15.0784 67.4491 13.7004 67.4491 12.0216C67.4491 10.3744 67.977 9.0018 69.0382 7.89841C70.0993 6.79503 71.4192 6.24597 72.9977 6.24597C74.0747 6.24597 74.988 6.48354 75.7483 6.95341C76.5877 7.47606 77.1367 8.22574 77.3849 9.19714C77.4535 9.49806 77.501 9.86234 77.538 10.2794C77.1526 10.3216 75.5952 10.3586 72.871 10.3797C72.4487 10.3797 71.9207 10.3956 71.2819 10.4325C71.2291 11.0344 71.208 11.5465 71.208 11.9635C71.208 13.9222 71.6198 15.3159 72.4434 16.1342C72.9291 16.6199 73.5256 16.8628 74.2331 16.8628C74.8191 16.8628 75.3893 16.6622 75.9383 16.2557C76.4821 15.8544 76.8992 15.3318 77.1842 14.693C77.3162 14.3709 77.4271 14.2125 77.5116 14.2125C77.5802 14.2178 77.6119 14.2653 77.6119 14.3656ZM74.4337 9.95209C74.4495 8.66392 74.3598 7.77171 74.1592 7.27017C73.9586 6.76863 73.6048 6.5205 73.098 6.5205C72.0738 6.5205 71.4825 7.66612 71.3347 9.95209C71.6884 9.95209 72.4275 9.95209 73.552 9.95209C73.8899 9.95209 74.1856 9.95209 74.4337 9.95209Z"
              fill="white" fill-opacity="0.2"/>
        <path d="M89.3426 6.69998C89.3426 6.81612 89.3109 6.89003 89.2423 6.91643C89.1736 6.94283 88.9413 6.95339 88.5348 6.95339C88.0808 6.95339 87.8116 6.97978 87.7271 7.0273L87.574 7.30182L87.2731 8.18348C87.1358 8.58471 86.8349 9.40301 86.365 10.6278C86.3333 10.7281 85.9638 11.7629 85.2563 13.7321C83.5933 18.3885 82.5163 21.2077 82.0306 22.1791C81.4235 23.3881 80.6527 23.9952 79.7077 23.9952C79.1692 23.9952 78.7363 23.8368 78.409 23.5148C78.0817 23.1927 77.918 22.7756 77.918 22.253C77.918 21.4294 78.372 21.0176 79.2801 21.0176C79.581 21.0176 79.8239 21.1179 80.0139 21.3185C80.0984 21.403 80.2409 21.6353 80.4415 22.026C80.5577 22.1949 80.7214 22.2794 80.922 22.2794C81.2598 22.2794 81.5819 21.9996 81.8934 21.4347C82.2049 20.8698 82.6272 19.8086 83.1657 18.246C83.0337 17.9767 82.7698 17.3801 82.3844 16.4562C81.8775 15.1786 81.2071 13.5051 80.3624 11.4356C80.1617 10.934 79.7077 9.83064 79.0056 8.13068C78.768 7.53412 78.5674 7.1804 78.3984 7.06953C78.2295 6.95867 77.8441 6.89003 77.237 6.8742C77.0363 6.8742 76.936 6.81612 76.936 6.69998C76.936 6.58383 77.0363 6.52576 77.237 6.52576H77.691C77.9444 6.52576 78.3192 6.52576 78.8261 6.52576C79.3276 6.52576 79.7183 6.52576 79.9875 6.52576H83.0654C83.1657 6.52576 83.2818 6.52576 83.4191 6.52576C83.6039 6.52576 83.6936 6.58383 83.6936 6.69998C83.6936 6.85308 83.4402 6.91643 82.9387 6.90059C82.4319 6.88475 82.1837 6.99562 82.1837 7.22791C82.1837 7.39685 82.2524 7.65554 82.3844 8.00926C82.5691 8.47912 82.6694 8.75893 82.6853 8.8434C83.5089 11.1294 84.1793 12.8716 84.702 14.0647C86.2647 10.0788 87.0461 7.80864 87.0461 7.25431C87.0461 7.06953 86.8507 6.97978 86.4653 6.97978C85.6576 6.97978 85.2563 6.90587 85.2563 6.75277C85.2563 6.59967 85.3566 6.52576 85.5573 6.52576C85.7262 6.52576 85.8951 6.53632 86.0641 6.55215C86.3808 6.58383 86.819 6.60495 87.3734 6.60495C87.442 6.60495 87.6901 6.58911 88.1178 6.56799C88.5454 6.54159 88.8252 6.53104 88.9625 6.53104H89.1156C89.2634 6.52576 89.3426 6.58383 89.3426 6.69998Z"
              fill="white" fill-opacity="0.2"/>
        <path d="M102.161 17.2901C102.161 17.4273 101.95 17.4907 101.533 17.4907C101.501 17.4907 101.279 17.4907 100.878 17.4907C100.477 17.4907 99.8857 17.4907 99.1149 17.4907H98.3071H96.1373C95.8997 17.4907 95.7836 17.4273 95.7836 17.3006C95.7836 17.1898 95.8839 17.137 96.0792 17.137H96.2799C96.7075 17.137 96.9609 17.0842 97.0348 16.9733C97.1087 16.8624 97.1457 16.4876 97.1457 15.8435V10.9495C97.1457 9.144 97.0295 8.06173 96.7972 7.70274C96.5966 7.39653 96.2429 7.24343 95.7308 7.24343C95.2187 7.24343 94.7963 7.40181 94.4637 7.72385C94.1312 8.04062 93.9675 8.44713 93.9675 8.93283V16.5562C93.9992 16.7569 94.0731 16.8888 94.1839 16.9469C94.2948 17.005 94.5641 17.0419 95.0022 17.0578C95.1342 17.0578 95.2029 17.1106 95.2029 17.2056C95.2029 17.3059 95.1448 17.364 95.0286 17.3798C94.9125 17.3957 94.4902 17.4062 93.7669 17.4062C93.0436 17.4062 92.447 17.4168 91.9772 17.4326C91.0533 17.4643 90.1083 17.4854 89.1527 17.4854C88.9521 17.4854 88.8518 17.4273 88.8518 17.3112C88.8518 17.1792 89.1105 17.1106 89.6226 17.1106C90.1347 17.1106 90.4356 17.0103 90.5201 16.8096L90.594 16.4559V10.675C90.594 9.04898 90.5781 8.199 90.5412 8.13564C90.4884 7.88224 90.2614 7.75553 89.8602 7.75553C89.6437 7.75553 89.4484 7.75553 89.2794 7.75553H89.0049C88.7356 7.75553 88.5984 7.70274 88.5984 7.59187C88.5984 7.481 88.6987 7.41765 88.8993 7.40181C90.7735 7.31734 92.2728 6.92139 93.392 6.21396C93.524 6.14532 93.6191 6.11365 93.6666 6.11365C93.7986 6.11365 93.8672 6.25091 93.8672 6.51488C93.8672 7.25399 93.8672 7.73441 93.8672 7.95087C94.7594 6.78941 95.8997 6.20868 97.2988 6.20868C98.7453 6.20868 99.685 6.71022 100.123 7.72385C100.308 8.1462 100.419 8.61607 100.461 9.13872C100.503 9.66138 100.524 10.7384 100.524 12.3644V16.023C100.524 16.5457 100.567 16.8519 100.651 16.9416C100.736 17.0367 101.01 17.0789 101.469 17.0789C101.929 17.0895 102.161 17.1581 102.161 17.2901Z"
              fill="white" fill-opacity="0.2"/>
        <path d="M110.529 13.9641C110.529 15.0886 110.186 16.0019 109.499 16.6988C108.813 17.3956 107.926 17.7441 106.833 17.7441C106.295 17.7441 105.661 17.6068 104.922 17.3429C104.32 17.1264 103.924 17.0155 103.74 17.0155C103.423 17.0155 103.212 17.137 103.111 17.3798C103.011 17.6227 102.937 17.7441 102.884 17.7441C102.784 17.7441 102.731 17.686 102.731 17.5646C102.731 17.4643 102.747 17.3006 102.773 17.0842C102.816 16.7621 102.837 16.2025 102.837 15.4106C102.837 15.3789 102.837 15.2945 102.837 15.1572C102.837 15.0199 102.837 14.8352 102.837 14.5976V14.1647C102.837 13.9799 102.879 13.8849 102.964 13.8849C103.064 13.8849 103.138 14.0116 103.191 14.265C103.344 15.1572 103.771 15.9016 104.473 16.4982C105.176 17.0947 105.962 17.3956 106.833 17.3956C107.388 17.3956 107.831 17.2214 108.174 16.8783C108.517 16.5351 108.686 16.0864 108.686 15.5267C108.686 15.0886 108.528 14.719 108.206 14.4181C107.968 14.2016 107.34 13.9218 106.316 13.5839C105.054 13.1616 104.141 12.6548 103.581 12.0582C103.016 11.4616 102.737 10.7014 102.737 9.77752C102.737 8.785 103.074 7.94558 103.745 7.25398C104.415 6.56238 105.239 6.21922 106.216 6.21922C106.585 6.21922 107.224 6.33537 108.132 6.57294C108.269 6.60462 108.37 6.62574 108.433 6.62574C108.803 6.62574 109.082 6.39872 109.267 5.9447C109.299 5.86023 109.341 5.81799 109.394 5.81799C109.51 5.81799 109.568 5.9183 109.568 6.11892L109.542 6.59934C109.526 6.66797 109.515 6.78412 109.515 6.95306C109.515 7.64465 109.557 8.34681 109.642 9.07008V9.19679C109.642 9.33405 109.589 9.3974 109.489 9.3974C109.404 9.3974 109.336 9.32349 109.288 9.17039C108.803 7.4546 107.81 6.59934 106.311 6.59934C105.756 6.59934 105.297 6.75244 104.938 7.05336C104.574 7.35429 104.394 7.74496 104.394 8.21483C104.394 8.65301 104.547 8.99617 104.848 9.24958C105.149 9.50299 105.74 9.78808 106.612 10.1048C108.143 10.6433 109.177 11.1818 109.716 11.7203C110.26 12.2588 110.529 13.0032 110.529 13.9641Z"
              fill="white" fill-opacity="0.2"/>
        <path d="M11.0128 16.435V11.4566H11.0181V1.75836C11.0181 0.808079 11.7836 0.0478502 12.7286 0.0214533C11.1976 0.0214533 9.80387 0.554669 8.71105 1.44688C7.61822 0.544111 6.21391 0.00561523 4.67761 0.00561523C5.6279 0.0267327 6.38813 0.792241 6.38813 1.74253V11.805C6.38813 15.5058 9.39736 18.4887 13.0718 18.4887C11.9367 18.494 11.0128 17.5701 11.0128 16.435Z"
              fill="white" fill-opacity="0.2"/>
        <path d="M0 4.64108C0 2.07531 2.03784 0.0163574 4.60361 0.0163574H0V4.64108Z" fill="white" fill-opacity="0.2"/>
        <path d="M12.7709 0.0112305C15.3155 0.0112305 17.422 2.07018 17.422 4.63596V0.0112305H12.7709Z" fill="white"
              fill-opacity="0.2"/>
        <path d="M55.787 13.6472C55.7184 11.1975 53.5644 9.22833 51.1148 9.22833H50.2067C52.8887 9.22833 55.0162 7.05323 54.8315 4.37132C54.7681 1.85306 52.593 0 50.0484 0H48.3378C49.3092 0 50.0484 0.786626 50.0484 1.71051V7.44919C50.0484 8.39947 49.3568 9.22833 48.4276 9.22833C47.4087 9.32336 46.622 8.53674 46.622 7.53894V6.31412C46.622 6.07655 46.6062 5.84426 46.5798 5.61197V1.74747C46.5798 0.797184 47.3453 0.0369556 48.2903 0.0105587C46.7699 0.0105587 45.3867 0.538495 44.2991 1.42015C43.2063 0.533216 41.802 0 40.2604 0C41.1843 0 42.0184 0.786626 42.0184 1.71051V5.49582C41.9815 5.77563 41.9551 6.06071 41.9551 6.35108V16.4399C41.9551 17.575 41.0312 18.4989 39.8961 18.4989C41.5697 18.4989 43.1007 17.8759 44.2727 16.857C45.4395 17.8865 46.9599 18.5095 48.6335 18.5095C47.5671 18.5095 46.622 17.5592 46.622 16.4294V11.5037C46.622 10.4373 47.5037 9.42367 48.586 9.42367C49.7633 9.42367 50.6924 10.3476 50.6924 11.4615V16.4347C50.6924 17.5697 49.8372 18.5147 48.6335 18.5147H51.1781C53.8389 18.5095 55.9454 16.2868 55.787 13.6472Z"
              fill="white" fill-opacity="0.2"/>
    </g>
    <defs>
        <clipPath id="clip0_11_207">
            <rect width="110.529" height="24" fill="white"/>
        </clipPath>
    </defs>
</svg>
